<?xml version="1.0" standalone="no"?>
<!DOCTYPE svg PUBLIC "-//W3C//DTD SVG 20010904//EN"
 "http://www.w3.org/TR/2001/REC-SVG-20010904/DTD/svg10.dtd">
<svg version="1.0" xmlns="http://www.w3.org/2000/svg"
 width="1024.000000pt" height="1024.000000pt" viewBox="0 0 1024.000000 1024.000000"
 preserveAspectRatio="xMidYMid meet">

<g transform="translate(0.000000,1024.000000) scale(0.100000,-0.100000)"
fill="#000000" stroke="none">
<path d="M5342 9985 c-12 -15 -22 -39 -22 -53 0 -26 53 -188 76 -234 17 -33
15 -33 -34 -12 -361 153 -903 233 -1277 188 -32 -3 -65 -36 -65 -63 0 -24 52
-110 99 -163 22 -25 41 -48 41 -50 0 -1 -44 -4 -98 -6 -53 -1 -131 -7 -173
-12 l-76 -9 -114 113 c-123 121 -210 176 -278 176 -106 -1 -215 -137 -331
-414 l-45 -109 -68 -17 c-129 -34 -370 -165 -398 -216 -36 -68 50 -127 222
-152 l54 -7 -40 -29 c-142 -104 -191 -145 -266 -223 -227 -236 -381 -514 -326
-588 12 -16 30 -20 89 -23 41 -2 91 1 111 6 41 11 44 7 22 -25 -28 -40 -86
-187 -116 -293 -52 -186 -58 -373 -13 -408 27 -20 85 -9 141 25 l48 30 1 -131
c2 -226 57 -439 119 -468 37 -17 33 -52 -10 -78 -19 -11 -54 -44 -79 -71 -135
-151 -194 -390 -151 -616 8 -43 15 -78 15 -79 0 0 -28 13 -62 30 -57 28 -72
31 -163 32 l-100 1 -210 97 c-264 123 -509 230 -602 263 -90 32 -123 27 -198
-30 -149 -113 -277 -355 -259 -492 9 -69 27 -100 77 -129 49 -29 532 -256 658
-310 l85 -37 11 -92 c14 -112 52 -235 93 -301 l31 -49 -35 -82 c-72 -168 -148
-439 -188 -670 -18 -105 -22 -169 -22 -330 0 -185 2 -207 27 -299 14 -54 43
-128 63 -164 34 -63 36 -70 29 -129 -24 -225 10 -573 76 -783 47 -149 127
-268 209 -310 91 -46 290 -50 523 -10 162 28 397 104 535 174 74 37 82 35 70
-17 -40 -179 -118 -733 -121 -861 l-2 -98 39 -34 c81 -70 361 -129 435 -91 25
12 50 82 51 140 0 15 1 27 3 27 1 0 34 -9 72 -19 264 -71 647 -106 1172 -106
l381 0 6 -37 c10 -60 35 -75 135 -84 130 -10 697 3 856 20 77 9 175 23 218 32
l78 17 32 -30 c18 -16 44 -37 58 -46 17 -10 29 -28 33 -51 21 -110 170 -175
379 -163 124 7 211 32 298 88 87 56 142 110 200 197 91 138 127 278 136 538
l6 171 46 23 c104 54 169 101 181 130 18 43 14 107 -15 250 -55 271 -135 541
-245 825 -60 155 -144 345 -179 409 -12 20 -17 36 -11 36 5 0 12 -5 15 -10 4
-6 25 -20 48 -31 128 -65 1091 -646 1547 -934 256 -162 290 -180 356 -195 75
-17 131 7 219 94 87 87 149 180 175 265 32 102 22 170 -31 217 -46 41 -1077
637 -1569 906 -461 253 -955 516 -1270 676 -168 85 -306 158 -307 161 -2 3 16
17 40 30 127 72 354 267 413 354 37 54 41 57 92 57 24 0 75 7 115 16 345 77
622 354 723 722 9 31 18 112 21 178 9 197 -33 333 -136 446 l-52 56 13 111
c10 88 15 111 29 114 27 7 49 49 70 139 34 138 49 237 55 365 l7 123 26 -6
c14 -3 32 -7 39 -10 7 -2 25 8 39 22 25 25 26 28 20 122 -7 101 -45 258 -78
324 -10 20 -19 41 -19 46 0 4 24 8 53 8 74 -1 90 14 85 76 -9 93 -111 252
-255 399 l-74 76 46 18 c65 24 125 83 125 122 0 16 -8 37 -18 46 -56 51 -249
108 -434 128 -134 14 -126 5 -107 116 15 86 4 169 -26 199 -35 35 -60 30 -115
-22 l-48 -45 -6 68 c-10 118 -34 241 -53 280 -14 30 -24 39 -50 41 -45 4 -94
-49 -189 -204 -9 -16 -15 -5 -38 64 -123 369 -329 642 -485 642 -35 0 -104
-31 -140 -64 -29 -26 -162 -209 -185 -253 l-16 -33 -38 38 c-151 150 -413 317
-518 329 -36 5 -44 2 -62 -22z m1025 -297 c77 -85 204 -369 268 -603 66 -240
80 -337 79 -555 -1 -178 -3 -204 -27 -292 -26 -97 -81 -228 -96 -228 -4 0 -27
23 -51 51 l-42 50 31 68 c90 195 103 443 40 761 -38 192 -154 517 -222 624
l-31 49 -28 -34 c-44 -52 -191 -358 -243 -504 -55 -153 -106 -327 -131 -445
-10 -47 -18 -86 -19 -88 -2 -2 -95 37 -103 43 -3 3 75 268 110 370 79 231 158
404 269 590 60 100 128 185 148 185 5 0 26 -19 48 -42z m-2827 -176 c167 -170
335 -472 451 -811 34 -99 33 -91 15 -91 -8 0 -34 -9 -59 -19 l-45 -19 -17 71
c-48 199 -209 551 -323 707 -55 75 -114 140 -127 140 -43 0 -158 -403 -206
-725 -19 -121 -17 -456 3 -552 l15 -71 -50 -59 c-27 -32 -52 -62 -57 -66 -4
-5 -7 4 -7 20 0 15 -5 80 -11 143 -15 141 -15 319 -2 465 25 277 121 648 217
839 45 90 59 106 96 106 24 0 45 -15 107 -78z m835 -945 c-138 -111 -195 -187
-195 -261 0 -53 20 -85 95 -151 37 -32 71 -69 76 -82 15 -40 -15 -86 -97 -150
-78 -61 -102 -100 -83 -135 6 -11 32 -44 59 -73 82 -91 99 -139 120 -340 23
-234 32 -544 24 -865 -9 -338 -7 -586 5 -655 l7 -40 12 40 c24 79 52 235 97
540 70 469 113 662 192 865 74 188 119 257 270 406 166 165 167 167 63 264
-47 43 -70 72 -70 87 0 36 61 94 158 151 107 63 159 112 168 159 4 19 -1 61
-10 98 -27 106 -20 175 15 175 34 0 170 -31 251 -56 69 -22 82 -30 133 -87
109 -120 161 -266 153 -432 -6 -115 -22 -162 -84 -251 -57 -81 -111 -125 -276
-223 -178 -106 -234 -149 -345 -264 -218 -225 -350 -524 -408 -920 -16 -110
-33 -436 -22 -427 3 3 27 77 52 164 110 379 231 598 429 775 134 121 270 189
555 281 289 92 404 157 480 270 61 92 85 175 84 295 -1 170 -52 313 -179 502
-35 53 -63 98 -61 99 8 8 205 -145 289 -225 165 -157 287 -320 382 -510 53
-105 110 -241 104 -245 -2 -1 -15 -7 -30 -14 -35 -14 -35 -32 -8 -185 11 -62
23 -150 27 -197 l8 -85 42 1 42 1 7 -76 c10 -103 -11 -466 -36 -631 -50 -330
-147 -599 -311 -862 -291 -468 -855 -824 -1444 -913 -611 -92 -1243 29 -1669
318 -119 81 -303 265 -384 385 -216 316 -324 734 -326 1252 -1 241 13 377 60
600 33 156 107 410 119 410 1 0 0 -31 -3 -68 -7 -99 15 -292 54 -487 54 -268
93 -375 163 -448 49 -52 101 -77 266 -126 176 -53 207 -67 325 -146 97 -64
215 -178 267 -256 l28 -43 7 55 c11 97 8 282 -6 379 -28 181 -98 361 -188 482
-93 126 -199 192 -410 254 -159 47 -203 70 -266 139 -66 72 -92 149 -99 291
-7 127 16 269 59 373 36 85 146 237 234 321 l57 55 -27 -45 c-54 -90 -94 -177
-121 -260 -23 -70 -28 -104 -29 -195 -2 -231 59 -313 349 -465 189 -99 282
-172 373 -295 122 -165 200 -430 217 -735 3 -58 9 -121 12 -140 6 -34 6 -34
19 25 43 195 59 419 44 590 -21 244 -61 407 -139 571 -72 151 -120 214 -277
369 -159 157 -191 206 -201 308 -9 103 31 225 115 342 51 71 174 206 232 255
53 44 182 94 335 130 109 25 116 24 70 -13z m3152 -1982 c160 -73 244 -241
230 -463 -7 -118 -26 -190 -78 -301 -94 -201 -207 -320 -395 -414 -161 -81
-346 -95 -488 -39 l-44 17 48 100 c27 55 67 154 90 220 70 205 91 306 129 617
8 70 13 82 52 128 67 79 157 137 250 161 52 12 148 0 206 -26z m-4892 -598 l7
-58 -38 16 c-22 9 -49 21 -61 25 -25 10 -42 75 -50 196 -9 136 29 288 94 373
l28 36 6 -265 c4 -146 10 -291 14 -323z m-368 -74 c19 -9 37 -21 39 -28 3 -6
-10 -37 -29 -68 -52 -85 -88 -207 -94 -314 -3 -51 -8 -93 -10 -93 -19 0 -141
74 -152 92 -8 12 -16 55 -19 95 -9 142 63 283 163 318 52 18 60 18 102 -2z
m311 -85 c58 -36 59 -52 9 -116 -24 -32 -60 -82 -80 -112 -37 -59 -93 -205
-100 -261 -4 -37 -13 -39 -74 -14 -55 23 -68 56 -67 165 1 73 6 108 23 152 32
83 80 148 136 186 55 38 92 38 153 0z m116 -220 c10 -40 21 -79 23 -86 3 -7
-22 1 -58 17 -34 17 -66 28 -71 25 -15 -10 -8 11 18 51 26 39 51 65 64 65 3 0
14 -33 24 -72z m41 -175 c9 -5 35 -57 59 -115 24 -59 62 -138 84 -177 l41 -71
-50 -75 c-61 -90 -112 -134 -212 -180 -71 -33 -239 -79 -260 -72 -6 2 32 13
84 26 137 33 264 97 325 164 27 29 60 74 73 99 l24 45 -31 52 c-18 28 -32 55
-32 61 0 19 -18 19 -40 0 -12 -11 -27 -17 -32 -14 -6 4 -7 -2 -3 -15 4 -12 2
-27 -3 -34 -5 -7 -15 -35 -21 -63 -7 -29 -22 -61 -34 -72 -37 -35 -131 -72
-214 -84 -75 -11 -84 -10 -141 11 -34 13 -62 27 -62 32 0 23 -20 5 -30 -27 -7
-19 -14 -33 -17 -30 -14 14 24 80 77 130 81 77 147 106 220 95 97 -14 187 -11
204 7 25 25 20 30 -46 49 -121 33 -143 47 -158 98 -16 58 -9 150 14 199 l18
37 73 -34 c41 -18 81 -37 90 -42z m-845 -163 c91 -39 341 -150 362 -161 16 -9
16 -13 -9 -50 -31 -47 -43 -130 -22 -156 12 -14 12 -16 0 -11 -38 12 -31 112
11 171 11 15 18 30 16 32 -5 5 -112 54 -312 141 l-169 74 7 -48 c18 -139 101
-265 229 -346 16 -10 26 -20 23 -23 -3 -3 17 -17 44 -30 56 -28 208 -183 267
-272 76 -115 106 -244 106 -456 -1 -308 -36 -403 -193 -528 -51 -41 -176 -77
-264 -77 -105 0 -242 46 -304 103 -15 14 -21 16 -18 7 2 -8 12 -39 22 -69 56
-179 217 -327 409 -376 51 -13 243 -23 249 -13 1 2 30 66 66 143 35 77 66 145
69 150 3 6 -13 -4 -34 -21 -60 -46 -76 -51 -25 -7 24 21 54 48 67 60 13 12 23
18 23 13 0 -9 -39 -98 -93 -210 -20 -41 -43 -93 -52 -114 l-15 -39 -109 6
c-186 10 -326 70 -439 192 -67 71 -121 172 -149 275 -15 52 -18 103 -17 255 1
202 16 322 70 545 39 158 128 425 159 478 1 1 18 -5 38 -13 38 -16 107 -21
107 -7 0 4 -28 28 -62 52 -97 71 -173 206 -192 343 l-7 48 38 -17 c21 -9 67
-29 103 -44z m590 -569 c33 -6 36 -10 57 -72 12 -37 31 -115 42 -175 55 -307
30 -581 -73 -807 -36 -80 -124 -223 -132 -215 -2 3 15 34 39 69 52 79 120 231
149 336 19 69 22 105 22 308 1 203 -2 243 -22 338 -12 59 -30 129 -40 154 -16
43 -21 48 -57 54 -22 4 -51 12 -65 18 -27 12 -33 13 80 -8z m3069 -418 c-22
-53 -39 -102 -39 -110 0 -7 -10 -15 -22 -17 -49 -10 -322 -36 -478 -46 -91 -6
-188 -15 -217 -21 -80 -16 -147 -72 -181 -151 -16 -38 -2 -35 50 8 74 63 125
77 323 93 72 6 211 24 309 41 98 17 180 29 182 27 2 -2 -7 -32 -21 -66 -45
-117 -144 -444 -183 -611 -28 -116 -67 -319 -93 -475 -11 -71 -24 -133 -27
-136 -14 -14 -116 -29 -191 -29 -95 0 -272 24 -366 49 -81 23 -170 59 -162 67
3 3 19 -2 35 -10 55 -28 200 -65 319 -81 135 -17 225 -18 303 -2 52 12 55 13
62 51 5 21 7 40 5 42 -1 2 -36 -2 -77 -8 -110 -15 -305 -3 -427 27 -124 30
-160 44 -239 95 -33 22 -66 40 -74 40 -7 0 -42 -11 -76 -25 -35 -14 -111 -33
-170 -42 -91 -14 -121 -15 -188 -5 -108 16 -147 28 -190 57 l-36 24 -6 -23
c-12 -51 -1 -70 56 -98 80 -39 166 -53 325 -52 77 0 129 -3 115 -7 -39 -11
-200 -10 -286 2 -84 11 -193 50 -217 77 -14 15 -14 29 3 129 54 315 176 668
320 927 78 140 61 130 172 102 110 -28 163 -53 217 -101 21 -19 41 -35 45 -35
9 0 -31 79 -61 118 -29 38 -75 63 -163 86 -36 9 -71 19 -78 21 -9 3 -6 14 10
40 17 27 28 34 43 30 11 -3 76 -15 145 -27 109 -19 161 -22 400 -22 233 0 296
3 416 22 127 20 393 89 433 112 9 5 17 10 17 10 1 0 -16 -44 -37 -97z m-2251
-79 c12 -8 22 -24 22 -35 0 -21 -42 -69 -60 -69 -12 0 -24 29 -34 83 -7 36 -6
37 21 37 16 0 39 -7 51 -16z m157 -16 c20 -9 25 -18 25 -50 0 -24 -6 -43 -17
-53 -10 -8 -39 -34 -66 -56 -26 -23 -45 -35 -42 -26 6 15 -19 64 -39 79 -17
11 21 76 56 98 38 23 48 24 83 8z m3129 -54 c27 -10 18 -39 -25 -84 -23 -24
-52 -65 -64 -92 l-23 -49 -6 36 c-15 78 -51 115 -111 115 -44 0 -23 21 51 51
66 27 142 37 178 23z m179 -91 c54 -38 82 -94 82 -164 0 -33 -6 -63 -14 -72
-12 -16 -18 -14 -68 14 -76 43 -159 44 -244 2 -33 -16 -59 -28 -59 -27 0 12
47 124 63 153 76 131 148 160 240 94z m-3458 19 c21 -15 35 -78 28 -130 -3
-28 -8 -52 -10 -52 -2 0 -17 7 -32 15 -24 12 -30 22 -35 69 -6 43 -4 60 10 80
17 28 23 30 39 18z m3110 -70 c35 -52 34 -121 -5 -220 -48 -122 -52 -124 -78
-37 -26 88 -65 138 -124 157 -23 8 -44 20 -46 27 -6 18 79 95 118 107 18 5 51
8 72 6 31 -3 43 -11 63 -40z m-2992 -40 c-19 -54 -30 -72 -42 -70 -23 5 -20
81 5 109 16 18 55 40 61 35 1 -1 -10 -34 -24 -74z m2804 -108 c18 -14 41 -42
52 -62 22 -45 46 -130 38 -138 -3 -3 -56 7 -117 22 l-113 27 -19 43 c-11 27
-16 53 -12 69 16 65 109 86 171 39z m-2879 2 c22 0 32 -5 31 -15 -1 -26 -35
-116 -44 -116 -17 0 -63 72 -68 108 -6 36 -5 37 21 30 15 -4 42 -7 60 -7z
m3371 -44 c19 -9 36 -21 37 -27 2 -5 -16 -24 -39 -40 -23 -17 -66 -66 -96
-110 -30 -44 -59 -79 -65 -78 -6 2 -47 10 -91 19 -44 8 -84 20 -89 24 -21 21
42 133 97 172 75 54 185 72 246 40z m-3564 -21 c22 -10 48 -27 57 -37 26 -29
80 -151 76 -171 -2 -13 -10 -4 -25 27 -35 71 -111 144 -166 159 -49 14 -60 26
-29 34 32 9 47 7 87 -12z m3676 -57 c24 -29 -2 -162 -42 -215 l-18 -24 -39 39
c-22 21 -55 41 -72 45 l-33 6 53 63 c49 60 101 102 126 102 6 0 17 -7 25 -16z
m-3703 -88 c58 -30 115 -90 132 -140 7 -21 10 -39 8 -41 -2 -2 -23 22 -48 53
-49 62 -148 122 -201 122 -32 0 -40 16 -11 23 40 11 75 6 120 -17z m3065 -7
c44 -11 96 -28 115 -38 l34 -17 -56 -54 c-61 -58 -102 -131 -121 -213 l-12
-52 -18 35 c-32 62 -87 121 -137 146 -27 14 -51 31 -54 39 -17 43 55 142 117
162 47 15 41 15 132 -8z m-3157 -155 c24 -14 64 -48 88 -75 68 -76 129 -209
96 -209 -5 0 -10 8 -10 18 0 25 -49 104 -105 168 -49 57 -126 113 -179 131
-17 5 -32 15 -34 21 -5 15 82 -18 144 -54z m3445 54 c45 -13 45 -12 21 -133
-23 -110 -35 -135 -67 -135 -24 0 -25 3 -25 63 0 34 -7 93 -15 132 -8 38 -15
73 -15 77 0 12 58 9 101 -4z m178 -9 c43 -26 70 -58 71 -85 0 -28 -51 -106
-86 -131 -34 -24 -100 -44 -137 -41 -24 2 -25 4 -12 28 7 14 20 52 30 85 20
71 40 112 68 143 25 27 24 27 66 1z m-3505 -48 c55 -41 86 -79 86 -106 0 -22
-14 -12 -94 73 -76 80 -73 93 8 33z m3211 -47 c8 -38 15 -96 15 -129 0 -59 -1
-61 -42 -89 -22 -16 -58 -57 -80 -92 -66 -104 -84 -95 -80 41 4 134 40 230
114 311 23 25 45 41 50 36 4 -4 15 -39 23 -78z m-344 -37 c43 -29 72 -72 102
-155 22 -59 24 -76 18 -142 -6 -63 -8 -70 -15 -45 -21 81 -32 102 -82 153 -50
52 -55 55 -94 49 -47 -6 -60 9 -60 68 0 89 58 121 131 72z m-2981 -67 c50 -26
97 -66 131 -114 45 -62 34 -63 -22 -2 -50 55 -169 126 -210 126 -11 0 -19 5
-19 11 0 16 72 3 120 -21z m-21 -131 c53 -24 122 -78 151 -119 37 -52 12 -51
-37 1 -56 60 -110 93 -178 110 -68 16 -79 29 -24 29 24 0 64 -10 88 -21z
m2991 -5 c32 -27 57 -68 71 -116 9 -34 4 -35 -82 -9 -35 10 -77 22 -92 25 -25
6 -28 10 -25 44 2 29 10 41 37 59 43 29 53 29 91 -3z m488 4 c53 -57 75 -157
51 -227 l-12 -33 -57 57 c-58 57 -117 85 -182 85 l-29 0 21 38 c35 60 94 102
144 102 31 0 48 -6 64 -22z m-683 -92 c54 -23 140 -93 183 -149 81 -106 137
-243 188 -457 19 -80 49 -187 65 -238 17 -51 29 -95 26 -98 -10 -10 -57 128
-97 282 -89 345 -121 415 -241 536 -80 82 -141 117 -199 118 -26 0 -31 3 -20
10 21 14 55 12 95 -4z m-2776 -56 c53 -26 128 -124 119 -152 -2 -6 -16 9 -30
34 -27 45 -79 88 -133 108 -31 12 -109 -2 -121 -21 -3 -5 -10 -9 -16 -9 -18 0
15 32 47 46 43 19 90 17 134 -6z m3328 -25 c66 -20 150 -104 133 -134 -41 -78
-169 -75 -240 6 -28 31 -31 40 -25 77 4 22 12 47 17 54 14 16 53 15 115 -3z
m-273 -21 c3 -9 6 -28 6 -42 0 -15 6 -55 14 -89 14 -70 3 -87 -14 -20 -6 23
-15 55 -20 71 -19 57 -6 132 14 80z m-273 -25 c51 -18 108 -62 164 -129 47
-55 123 -180 111 -180 -4 0 -27 33 -53 73 -54 84 -143 175 -199 203 -27 13
-58 19 -99 18 -58 -1 -59 0 -30 12 38 16 63 17 106 3z m384 -164 c32 -154 65
-256 121 -368 25 -49 43 -94 41 -100 -5 -16 -73 97 -108 181 -37 91 -87 305
-89 387 -2 70 1 93 7 50 2 -16 15 -84 28 -150z m-2499 59 c124 -48 371 -42
476 11 21 10 28 11 26 2 -3 -7 -45 -23 -94 -36 -132 -35 -281 -34 -387 3 -43
15 -80 26 -83 24 -12 -13 -126 -890 -116 -899 4 -4 23 -9 42 -13 l35 -6 2 108
c2 121 41 376 73 467 38 112 107 190 201 229 20 9 78 21 128 27 109 15 241 3
385 -35 50 -13 163 -41 251 -61 285 -65 364 -105 401 -201 16 -42 16 -58 0
-277 -9 -128 -19 -251 -23 -274 -5 -39 -3 -43 16 -43 12 0 23 6 26 13 2 6 9
102 15 212 6 110 20 288 31 395 10 107 19 197 19 200 0 3 -80 5 -178 6 -162 1
-184 3 -266 28 -107 32 -179 67 -226 108 l-35 30 35 -21 c85 -52 171 -90 255
-112 77 -20 115 -23 259 -24 l168 0 -5 -60 c-19 -220 -48 -587 -53 -677 l-6
-106 -96 -8 c-54 -4 -250 -8 -437 -8 l-340 -1 4 103 c5 150 -33 125 -46 -31
l-6 -69 -81 7 c-222 18 -455 51 -533 76 -20 6 -33 17 -33 27 0 24 55 449 90
695 17 114 30 209 30 212 0 8 3 7 76 -21z m2078 -38 c77 -32 212 -199 295
-364 36 -71 95 -241 87 -249 -3 -3 -8 0 -10 8 -3 8 -17 48 -32 89 -98 277
-286 510 -411 510 -27 0 -42 4 -38 10 9 14 70 12 109 -4z m219 -108 c39 -51
89 -133 113 -183 65 -136 63 -155 -3 -27 -56 107 -151 248 -200 294 -13 12
-23 25 -23 30 0 21 48 -28 113 -114z m-203 -68 c-24 -18 -60 -33 -60 -24 0 2
17 15 37 28 42 29 61 25 23 -4z m29 -46 c53 -11 35 -19 -42 -19 -54 0 -80 -5
-101 -18 -15 -10 -30 -17 -32 -14 -5 5 49 40 76 50 21 8 62 8 99 1z m121 -61
c72 -82 129 -184 166 -296 37 -117 56 -247 35 -247 -7 0 -11 19 -11 48 0 59
-39 211 -73 285 -33 73 -95 162 -146 212 -23 21 -41 43 -41 47 0 15 36 -10 70
-49z m-35 -100 c67 -68 96 -106 126 -167 21 -44 39 -87 38 -95 0 -9 -17 18
-37 60 -41 84 -61 111 -164 217 -39 39 -66 72 -60 72 6 0 50 -39 97 -87z m-81
38 c6 -9 -8 -14 -89 -27 -22 -4 -57 -15 -78 -26 -50 -25 -55 -19 -11 11 28 19
80 35 166 50 4 0 9 -3 12 -8z m-67 -77 c-3 -3 -12 -4 -19 -1 -8 3 -5 6 6 6 11
1 17 -2 13 -5z m7 -44 c-7 -7 -19 -7 -35 -1 -23 9 -22 10 11 10 23 1 31 -2 24
-9z m123 -52 c102 -88 163 -196 198 -352 8 -38 13 -71 10 -74 -8 -8 -10 -2
-28 76 -44 188 -178 375 -257 357 -50 -12 -133 -60 -162 -95 -20 -24 -29 -29
-26 -16 5 29 92 97 150 117 70 24 71 24 115 -13z m-6 -194 c15 -7 46 -35 69
-61 62 -71 139 -233 110 -233 -5 0 -10 7 -10 16 0 24 -80 174 -114 212 -37 42
-76 62 -121 62 -66 0 -150 -59 -191 -136 -17 -32 -34 -45 -34 -26 0 14 60 95
88 120 15 13 50 34 77 47 51 24 77 24 126 -1z m25 -136 c52 -56 135 -220 120
-235 -2 -2 -24 39 -50 90 -33 66 -65 113 -106 156 -33 33 -60 64 -60 67 0 8
70 -48 96 -78z m-129 2 c41 -25 94 -96 139 -187 41 -85 64 -187 46 -205 -9 -9
-12 -4 -12 23 0 37 -35 152 -65 210 -28 53 -83 125 -111 143 -14 10 -44 21
-67 26 l-42 8 40 1 c24 0 53 -7 72 -19z m1603 -144 c0 -108 -18 -264 -40 -351
-37 -143 -110 -256 -217 -332 -90 -64 -230 -116 -150 -55 32 23 83 100 73 109
-2 2 -32 -14 -67 -35 -117 -71 -187 -97 -259 -97 -47 0 -73 6 -93 19 -29 20
-65 76 -48 76 6 0 26 14 46 31 31 27 35 37 35 77 0 36 -8 60 -37 107 -33 51
-38 67 -36 112 1 29 6 68 12 88 7 26 6 35 -2 34 -7 -1 -21 0 -32 1 -43 5 75
19 170 19 107 1 256 20 358 47 135 34 267 122 267 177 l0 26 -47 -15 c-185
-57 -457 -107 -655 -120 l-106 -7 -21 -49 c-82 -198 -88 -413 -11 -413 35 0
51 37 44 101 -4 33 -2 54 5 58 8 5 11 -14 11 -64 0 -61 -3 -74 -24 -95 -30
-30 -56 -24 -82 18 -15 25 -19 51 -18 117 0 89 17 164 63 280 l26 65 125 7
c206 10 473 59 640 117 30 10 58 19 63 20 4 0 7 -32 7 -73z"/>
<path d="M6526 7698 c26 -173 10 -315 -51 -445 -82 -176 -222 -245 -613 -303
-245 -36 -372 -82 -506 -182 -232 -174 -422 -566 -442 -912 -3 -50 -7 -104 -9
-119 -4 -25 4 -20 66 47 126 134 385 291 594 359 44 15 147 40 228 57 206 43
267 65 367 133 105 72 205 193 324 392 203 337 228 653 78 978 -19 42 -38 77
-42 77 -3 0 0 -37 6 -82z"/>
<path d="M2804 6755 c-5 -22 -9 -128 -8 -235 0 -236 20 -348 84 -477 72 -146
144 -200 340 -253 61 -17 134 -42 161 -56 108 -54 184 -155 213 -282 l13 -57
11 66 c16 88 15 143 -3 214 -33 131 -118 251 -218 310 -24 13 -84 40 -135 59
-114 42 -177 82 -242 153 -111 121 -179 298 -199 518 -7 77 -8 79 -17 40z"/>
<path d="M6721 6628 c-68 -249 -191 -416 -377 -515 -89 -47 -177 -71 -374
-103 -343 -56 -507 -180 -571 -428 -20 -77 -27 -276 -11 -286 5 -3 14 12 21
32 48 134 168 265 305 333 103 50 184 67 376 79 173 10 202 16 286 54 126 58
222 157 289 298 60 126 76 209 82 426 3 105 4 192 1 192 -3 0 -15 -37 -27 -82z"/>
<path d="M2841 5838 c-2 -16 62 -174 100 -251 49 -99 70 -128 169 -232 42 -44
89 -102 105 -130 40 -70 147 -226 151 -222 3 2 -3 24 -12 48 -8 24 -31 110
-49 190 -56 245 -112 334 -265 424 -78 46 -152 108 -182 155 -10 14 -17 22
-17 18z"/>
<path d="M6565 5755 c-99 -99 -170 -136 -340 -174 -149 -34 -205 -60 -270
-126 -61 -61 -91 -121 -150 -301 -25 -77 -60 -167 -79 -201 -19 -35 -30 -63
-25 -63 16 0 126 99 189 171 133 151 223 233 300 273 229 120 337 223 422 404
22 46 38 86 36 90 -2 4 -39 -29 -83 -73z"/>
<path d="M4108 5674 c-109 -33 -104 -135 13 -260 44 -45 102 -80 181 -107 14
-5 16 -23 15 -137 l-1 -132 -28 -14 c-123 -64 -314 -18 -435 103 -43 43 -56
65 -74 123 -17 57 -25 71 -45 76 -32 8 -64 -20 -64 -57 0 -57 40 -139 101
-204 115 -123 224 -169 379 -163 76 3 105 8 145 28 l50 25 55 -27 c76 -39 222
-62 328 -53 234 18 479 140 541 268 29 60 28 112 -3 132 -34 22 -57 8 -94 -58
-79 -140 -285 -237 -507 -240 -152 -1 -256 29 -276 81 -6 17 -8 67 -3 134 l6
107 38 6 c56 9 152 58 200 101 53 48 80 101 80 158 0 63 -29 94 -105 112 -84
19 -432 18 -497 -2z"/>
<path d="M7345 6308 c-54 -20 -109 -60 -170 -123 -72 -75 -119 -150 -147 -236
-11 -35 -23 -71 -26 -79 -3 -8 -4 -18 -4 -22 1 -5 -2 -8 -6 -8 -5 0 -14 -24
-21 -52 -7 -29 -19 -72 -27 -96 -8 -23 -14 -59 -14 -80 0 -28 -3 -33 -10 -22
-8 12 -10 11 -10 -5 0 -24 11 -26 115 -28 58 -2 80 3 127 26 130 64 221 235
188 355 -13 51 -70 117 -108 127 l-27 7 50 44 c60 54 158 104 204 104 24 0 42
-9 67 -34 19 -19 34 -40 34 -47 -1 -9 -6 -7 -15 6 -45 64 -101 73 -183 31 -58
-30 -132 -95 -115 -102 32 -14 64 -50 89 -100 23 -46 26 -63 21 -109 -6 -57
-45 -155 -75 -189 -16 -18 -16 -18 8 -11 39 11 126 82 172 139 64 80 89 146
100 266 9 94 9 110 -8 154 -11 27 -31 58 -46 69 -32 24 -118 32 -163 15z
m-152 -337 c13 -5 32 -26 42 -47 43 -91 -33 -256 -145 -314 -45 -23 -150 -37
-150 -21 0 7 4 9 10 6 20 -12 121 15 164 44 88 61 144 198 112 276 -17 40 -51
58 -80 43 -10 -6 -38 -28 -61 -49 -23 -22 -48 -39 -56 -39 -9 0 -6 5 6 12 11
6 42 31 69 55 52 47 54 47 89 34z"/>
<path d="M2600 6110 c-1 -47 -2 -89 -1 -93 1 -5 -8 -11 -19 -14 -11 -3 -20 -9
-20 -14 0 -7 51 -39 62 -39 4 0 -10 192 -16 225 -2 11 -4 -18 -6 -65z"/>
<path d="M2522 6060 c0 -14 2 -19 5 -12 2 6 2 18 0 25 -3 6 -5 1 -5 -13z"/>
<path d="M2531 6013 c-1 -12 4 -25 9 -28 12 -7 12 2 0 30 -8 19 -9 19 -9 -2z"/>
<path d="M2015 5562 c10 -55 28 -76 87 -104 l53 -25 8 50 c9 63 4 77 -28 77
-13 0 -48 9 -76 19 l-51 20 7 -37z"/>
<path d="M2277 5528 c-9 -25 4 -132 20 -156 12 -20 81 -59 87 -50 1 2 10 30
19 63 8 33 18 67 21 75 5 11 -9 20 -54 34 -32 10 -58 23 -57 29 3 16 -30 20
-36 5z"/>
<path d="M2649 5647 c-18 -15 -49 -58 -49 -70 0 -5 8 -3 17 4 9 8 14 9 10 3
-3 -6 11 -21 34 -33 l40 -23 -7 27 c-23 90 -29 103 -45 92z"/>
<path d="M2545 5302 c16 -63 28 -75 100 -99 39 -12 79 -22 90 -22 l20 0 -20
11 c-11 6 -38 27 -60 48 -22 20 -62 49 -89 63 l-48 27 7 -28z"/>
<path d="M2787 5270 c3 -11 9 -22 13 -25 5 -3 6 4 3 15 -3 11 -9 22 -13 25 -5
3 -6 -4 -3 -15z"/>
<path d="M5415 4308 c-222 -67 -352 -82 -700 -82 -268 0 -313 2 -424 22 -116
22 -125 22 -142 6 -28 -25 -24 -31 24 -39 120 -20 185 -66 240 -170 18 -32 39
-61 47 -63 13 -3 13 -2 0 7 -8 6 -10 11 -4 11 17 0 118 -31 130 -41 7 -5 22 7
42 36 36 52 93 90 154 105 24 5 138 17 253 25 193 14 456 41 460 47 10 16 62
178 57 177 -4 -1 -65 -19 -137 -41z"/>
<path d="M4447 3638 c-66 -143 -97 -269 -97 -390 0 -79 14 -80 29 0 20 103 80
351 97 405 25 76 8 67 -29 -15z"/>
<path d="M4235 2586 c-45 -108 -65 -269 -49 -403 8 -64 20 -68 28 -10 14 99
46 440 41 445 -2 3 -12 -11 -20 -32z"/>
<path d="M6640 1185 c-7 -8 -19 -15 -26 -15 -23 0 -16 -27 15 -53 44 -37 106
-42 182 -17 78 26 90 36 58 49 -13 5 -47 19 -76 30 -61 25 -135 28 -153 6z"/>
</g>
</svg>
